<svg width="27" height="27" viewBox="0 0 27 27" fill="none" xmlns="http://www.w3.org/2000/svg">
<path fill-rule="evenodd" clip-rule="evenodd" d="M19.125 3.375H23.625C24.2463 3.375 24.75 3.87868 24.75 4.5V22.5C24.75 23.1213 24.2463 23.625 23.625 23.625H3.375C2.75368 23.625 2.25 23.1213 2.25 22.5V4.5C2.25 3.87868 2.75368 3.375 3.375 3.375H7.875V1.125H10.125V3.375H16.875V1.125H19.125V3.375ZM16.875 5.625H10.125V7.875H7.875V5.625H4.5V10.125H22.5V5.625H19.125V7.875H16.875V5.625ZM22.5 12.375H4.5V21.375H22.5V12.375Z" fill="#312F2F"/>
</svg>
