<svg width="76" height="78" viewBox="0 0 76 78" fill="none" xmlns="http://www.w3.org/2000/svg">
<path d="M38.0001 57.2001C41.1868 57.2001 44.243 55.7392 46.4963 53.1387C48.7497 50.5382 50.0156 47.0111 50.0156 43.3335C50.0156 39.6558 48.7497 36.1288 46.4963 33.5282C44.243 30.9277 41.1868 29.4668 38.0001 29.4668C34.8134 29.4668 31.7572 30.9277 29.5039 33.5282C27.2505 36.1288 25.9846 39.6558 25.9846 43.3335C25.9846 47.0111 27.2505 50.5382 29.5039 53.1387C31.7572 55.7392 34.8134 57.2001 38.0001 57.2001Z" fill="#212121"/>
<path d="M26.7355 0L19.8642 8.66667H7.96134C3.83101 8.66667 0.45166 12.5667 0.45166 17.3333V69.3333C0.45166 74.1 3.83101 78 7.96134 78H68.0387C72.1691 78 75.5484 74.1 75.5484 69.3333V17.3333C75.5484 12.5667 72.1691 8.66667 68.0387 8.66667H56.1359L49.2645 0H26.7355ZM38 65C27.6367 65 19.2258 55.2933 19.2258 43.3333C19.2258 31.3733 27.6367 21.6667 38 21.6667C48.3634 21.6667 56.7742 31.3733 56.7742 43.3333C56.7742 55.2933 48.3634 65 38 65Z" fill="#212121"/>
</svg>
