<svg width="30" height="31" viewBox="0 0 30 31" fill="none" xmlns="http://www.w3.org/2000/svg">
<circle cx="15" cy="15.0352" r="15" fill="#C4C4C4"/>
<path d="M7.80696 23.9648L13.439 15.4688L8.20696 7.61284H11.823L14.303 11.3408C14.4843 11.5968 14.655 11.8635 14.815 12.1408C14.9856 12.4075 15.1296 12.6582 15.247 12.8928C15.3856 12.6475 15.535 12.3915 15.695 12.1248C15.8656 11.8582 16.0363 11.5968 16.207 11.3408L18.687 7.61284H22.319L17.071 15.4688L22.719 23.9648H19.087L16.191 19.5968C16.0203 19.3302 15.855 19.0688 15.695 18.8128C15.535 18.5462 15.3856 18.2902 15.247 18.0448C15.1296 18.2902 14.9856 18.5462 14.815 18.8128C14.6443 19.0688 14.4736 19.3302 14.303 19.5968L11.407 23.9648H7.80696Z" fill="#312F2F"/>
</svg>
