<svg width="32" height="32" viewBox="0 0 32 32" fill="none" xmlns="http://www.w3.org/2000/svg">
<circle cx="16" cy="16" r="16" fill="white"/>
<path fill-rule="evenodd" clip-rule="evenodd" d="M15.6592 17.8654L9.95317 23.5715C9.89883 23.6222 9.84444 23.6698 9.78213 23.7106C9.65891 23.7915 9.51925 23.8465 9.37403 23.8716C9.30951 23.8827 9.29291 23.8822 9.22768 23.8866C9.2031 23.8866 9.17858 23.8866 9.15405 23.8866C9.08883 23.8822 9.07223 23.8827 9.00771 23.8716C8.88669 23.8507 8.76951 23.8091 8.66251 23.7489C8.57691 23.7008 8.498 23.6409 8.42857 23.5715C8.21889 23.3618 8.10332 23.0687 8.1134 22.7724C8.1168 22.6742 8.13362 22.5767 8.16332 22.4831C8.20045 22.3661 8.2577 22.2556 8.33187 22.1578C8.37144 22.1056 8.38394 22.0947 8.42857 22.0469L14.1346 16.3409L8.42857 10.6348C8.38394 10.587 8.37144 10.5761 8.33187 10.5239C8.2577 10.4261 8.20045 10.3156 8.16332 10.1986C8.11874 10.0581 8.10338 9.90882 8.11847 9.76221C8.15658 9.39125 8.39106 9.05904 8.72784 8.8989C8.81651 8.85675 8.9109 8.82678 9.00771 8.81007C9.12866 8.78926 9.25307 8.78926 9.37403 8.81007C9.5435 8.83933 9.70521 8.90952 9.84223 9.0135C9.89446 9.05306 9.90535 9.06557 9.95317 9.1102L15.6592 14.8162L21.3653 9.1102C21.4131 9.06557 21.424 9.05306 21.4762 9.0135C21.574 8.93932 21.6845 8.88208 21.8014 8.84494C21.9419 8.80036 22.0913 8.785 22.2378 8.80009C22.3599 8.8126 22.4797 8.84618 22.5906 8.8989C22.6792 8.94105 22.7621 8.99538 22.8361 9.05991C23.1171 9.305 23.2533 9.68815 23.19 10.0557C23.1608 10.2251 23.0905 10.3868 22.9866 10.5239C22.947 10.5761 22.9345 10.587 22.8899 10.6348L17.1838 16.3409L22.8899 22.0469C22.9345 22.0947 22.947 22.1056 22.9866 22.1578C23.0608 22.2556 23.118 22.3661 23.1551 22.4831C23.1848 22.5767 23.2017 22.6742 23.205 22.7724C23.2151 23.0687 23.0995 23.3618 22.8899 23.5715C22.8205 23.6409 22.7415 23.7008 22.656 23.7489C22.549 23.8091 22.4317 23.8507 22.3108 23.8716C22.2462 23.8827 22.2296 23.8822 22.1644 23.8866C22.1398 23.8866 22.1153 23.8866 22.0908 23.8866C22.0256 23.8822 22.009 23.8827 21.9444 23.8716C21.7992 23.8465 21.6596 23.7915 21.5363 23.7106C21.474 23.6698 21.4196 23.6222 21.3653 23.5715L15.6592 17.8654Z" fill="black"/>
</svg>
