<svg width="27" height="28" viewBox="0 0 27 28" fill="none" xmlns="http://www.w3.org/2000/svg">
<path fill-rule="evenodd" clip-rule="evenodd" d="M15.9548 6.2002C15.6293 6.2002 15.3172 6.35823 15.087 6.63954C14.8568 6.92084 14.7275 7.30237 14.7275 7.7002V19.7002C14.7275 20.098 14.8568 20.4796 15.087 20.7609C15.3172 21.0422 15.6293 21.2002 15.9548 21.2002H20.8639C21.1894 21.2002 21.5016 21.0422 21.7317 20.7609C21.9619 20.4796 22.0912 20.098 22.0912 19.7002V7.7002C22.0912 7.30237 21.9619 6.92084 21.7317 6.63954C21.5016 6.35823 21.1894 6.2002 20.8639 6.2002H15.9548ZM19.6366 9.2002H17.1821V18.2002H19.6366V9.2002Z" fill="#312F2F"/>
<path d="M6.13645 6.2002C5.81096 6.2002 5.4988 6.35823 5.26864 6.63954C5.03848 6.92084 4.90918 7.30237 4.90918 7.7002C4.90918 8.09802 5.03848 8.47955 5.26864 8.76086C5.4988 9.04216 5.81096 9.2002 6.13645 9.2002H11.0455C11.371 9.2002 11.6832 9.04216 11.9134 8.76086C12.1435 8.47955 12.2728 8.09802 12.2728 7.7002C12.2728 7.30237 12.1435 6.92084 11.9134 6.63954C11.6832 6.35823 11.371 6.2002 11.0455 6.2002H6.13645ZM6.13645 12.2002C5.81096 12.2002 5.4988 12.3582 5.26864 12.6395C5.03848 12.9208 4.90918 13.3024 4.90918 13.7002C4.90918 14.098 5.03848 14.4796 5.26864 14.7609C5.4988 15.0422 5.81096 15.2002 6.13645 15.2002H11.0455C11.371 15.2002 11.6832 15.0422 11.9134 14.7609C12.1435 14.4796 12.2728 14.098 12.2728 13.7002C12.2728 13.3024 12.1435 12.9208 11.9134 12.6395C11.6832 12.3582 11.371 12.2002 11.0455 12.2002H6.13645ZM4.90918 19.7002C4.90918 19.3024 5.03848 18.9208 5.26864 18.6395C5.4988 18.3582 5.81096 18.2002 6.13645 18.2002H11.0455C11.371 18.2002 11.6832 18.3582 11.9134 18.6395C12.1435 18.9208 12.2728 19.3024 12.2728 19.7002C12.2728 20.098 12.1435 20.4796 11.9134 20.7609C11.6832 21.0422 11.371 21.2002 11.0455 21.2002H6.13645C5.81096 21.2002 5.4988 21.0422 5.26864 20.7609C5.03848 20.4796 4.90918 20.098 4.90918 19.7002Z" fill="#312F2F"/>
<path fill-rule="evenodd" clip-rule="evenodd" d="M3.68182 0.200195C2.70534 0.200195 1.76885 0.674301 1.07838 1.51821C0.387905 2.36213 0 3.50672 0 4.7002V22.7002C0 23.8937 0.387905 25.0383 1.07838 25.8822C1.76885 26.7261 2.70534 27.2002 3.68182 27.2002H23.3182C24.2947 27.2002 25.2311 26.7261 25.9216 25.8822C26.6121 25.0383 27 23.8937 27 22.7002V4.7002C27 3.50672 26.6121 2.36213 25.9216 1.51821C25.2311 0.674301 24.2947 0.200195 23.3182 0.200195H3.68182ZM23.3182 3.2002H3.68182C3.35633 3.2002 3.04416 3.35823 2.81401 3.63954C2.58385 3.92084 2.45455 4.30237 2.45455 4.7002V22.7002C2.45455 23.098 2.58385 23.4796 2.81401 23.7609C3.04416 24.0422 3.35633 24.2002 3.68182 24.2002H23.3182C23.6437 24.2002 23.9558 24.0422 24.186 23.7609C24.4162 23.4796 24.5455 23.098 24.5455 22.7002V4.7002C24.5455 4.30237 24.4162 3.92084 24.186 3.63954C23.9558 3.35823 23.6437 3.2002 23.3182 3.2002Z" fill="#312F2F"/>
</svg>
