<svg width="30" height="31" viewBox="0 0 30 31" fill="none" xmlns="http://www.w3.org/2000/svg">
<circle cx="15" cy="15" r="15" fill="#C4C4C4"/>
<path d="M7.80696 23.9297L13.439 15.4337L8.20696 7.57769H11.823L14.303 11.3057C14.4843 11.5617 14.655 11.8284 14.815 12.1057C14.9856 12.3724 15.1296 12.623 15.247 12.8577C15.3856 12.6124 15.535 12.3564 15.695 12.0897C15.8656 11.823 16.0363 11.5617 16.207 11.3057L18.687 7.57769H22.319L17.071 15.4337L22.719 23.9297H19.087L16.191 19.5617C16.0203 19.295 15.855 19.0337 15.695 18.7777C15.535 18.511 15.3856 18.255 15.247 18.0097C15.1296 18.255 14.9856 18.511 14.815 18.7777C14.6443 19.0337 14.4736 19.295 14.303 19.5617L11.407 23.9297H7.80696Z" fill="black"/>
</svg>
