<svg width="27" height="27" viewBox="0 0 27 27" fill="none" xmlns="http://www.w3.org/2000/svg">
<path d="M10.1255 3.375H5.62549C5.02875 3.375 4.45645 3.61205 4.0345 4.03401C3.61254 4.45597 3.37549 5.02826 3.37549 5.625V10.125C3.37549 10.7217 3.61254 11.294 4.0345 11.716C4.45645 12.1379 5.02875 12.375 5.62549 12.375H10.1255C10.7222 12.375 11.2945 12.1379 11.7165 11.716C12.1384 11.294 12.3755 10.7217 12.3755 10.125V5.625C12.3755 5.02826 12.1384 4.45597 11.7165 4.03401C11.2945 3.61205 10.7222 3.375 10.1255 3.375ZM5.62549 10.125V5.625H10.1255V10.125H5.62549Z" fill="black"/>
<path d="M21.375 3.375H16.875C16.2783 3.375 15.706 3.61205 15.284 4.03401C14.8621 4.45597 14.625 5.02826 14.625 5.625V10.125C14.625 10.7217 14.8621 11.294 15.284 11.716C15.706 12.1379 16.2783 12.375 16.875 12.375H21.375C21.9717 12.375 22.544 12.1379 22.966 11.716C23.3879 11.294 23.625 10.7217 23.625 10.125V5.625C23.625 5.02826 23.3879 4.45597 22.966 4.03401C22.544 3.61205 21.9717 3.375 21.375 3.375ZM16.875 10.125V5.625H21.375V10.125H16.875Z" fill="black"/>
<path d="M10.1255 14.625H5.62549C5.02875 14.625 4.45645 14.8621 4.0345 15.284C3.61254 15.706 3.37549 16.2783 3.37549 16.875V21.375C3.37549 21.9717 3.61254 22.544 4.0345 22.966C4.45645 23.3879 5.02875 23.625 5.62549 23.625H10.1255C10.7222 23.625 11.2945 23.3879 11.7165 22.966C12.1384 22.544 12.3755 21.9717 12.3755 21.375V16.875C12.3755 16.2783 12.1384 15.706 11.7165 15.284C11.2945 14.8621 10.7222 14.625 10.1255 14.625ZM5.62549 21.375V16.875H10.1255V21.375H5.62549Z" fill="black"/>
<path d="M21.375 14.625H16.875C16.2783 14.625 15.706 14.8621 15.284 15.284C14.8621 15.706 14.625 16.2783 14.625 16.875V21.375C14.625 21.9717 14.8621 22.544 15.284 22.966C15.706 23.3879 16.2783 23.625 16.875 23.625H21.375C21.9717 23.625 22.544 23.3879 22.966 22.966C23.3879 22.544 23.625 21.9717 23.625 21.375V16.875C23.625 16.2783 23.3879 15.706 22.966 15.284C22.544 14.8621 21.9717 14.625 21.375 14.625ZM16.875 21.375V16.875H21.375V21.375H16.875Z" fill="black"/>
</svg>
