<svg width="12" height="12" viewBox="0 0 12 12" fill="none" xmlns="http://www.w3.org/2000/svg">
<path d="M0.546876 0.997353C0.546876 1.26824 0.626974 1.46877 0.73074 1.68513L4.67472 10.1724C4.95507 10.7608 5.37104 11.1548 6.01092 11.1548C6.65081 11.1548 7.06678 10.7678 7.34712 10.1733L11.3703 1.68601C11.4839 1.48682 11.5446 1.26349 11.5469 1.03605C11.5469 0.518022 11.1555 0.154785 10.6103 0.154785C10.1388 0.154785 9.86661 0.386975 9.66636 0.827608L6.11469 8.76604L6.0264 8.76604L2.45106 0.827608C2.25081 0.363228 1.97046 0.154785 1.49077 0.154785C0.93918 0.154785 0.546876 0.495154 0.546876 0.997353Z" fill="black"/>
</svg>
