<?xml version="1.0" encoding="UTF-8"?><svg id="Layer_1" xmlns="http://www.w3.org/2000/svg" viewBox="0 0 224 224"><defs><style>.cls-1{fill:#f5f4f4;}</style></defs><circle class="cls-1" cx="112" cy="112" r="112"/><path d="M45.1,187.1c.7,0,1.3,0,2,0l32.6-8.2c1.4-.3,2.8-1.1,3.8-2.1l100.2-100.5c3-3.1,4.7-7.2,4.7-11.5s-1.7-8.4-4.7-11.5l-12.9-13c-1.5-1.5-3.3-2.7-5.3-3.5-2-.8-4.1-1.2-6.2-1.2s-4.3,.4-6.2,1.2c-2,.8-3.8,2-5.3,3.5L47.5,140.5c-1.1,1.1-1.8,2.4-2.2,3.8l-8.2,32.6c-.3,1.1-.4,2.2-.2,3.2,.1,1.1,.5,2.1,1.1,3.1,.6,.9,1.3,1.8,2.2,2.4,.9,.7,1.9,1.1,2.9,1.4,.7,0,1.3,0,2,0ZM159.3,51.8l13,13-13,13-12.9-13,12.9-13ZM60.7,150.5l74.1-74.2,13,13-74.2,74.2-17.2,4.2,4.3-17.2Z"/></svg>