<svg width="35" height="35" viewBox="0 0 35 35" fill="none" xmlns="http://www.w3.org/2000/svg">
<g filter="url(#filter0_ii_33866_16635)">
<circle cx="17.5" cy="17.5" r="17.5" fill="#F5F4F4"/>
</g>
<path d="M12.0728 25.6544C12.1444 25.663 12.2167 25.663 12.2883 25.6544L15.8804 24.7569C16.0398 24.7191 16.1857 24.6384 16.3025 24.5236L27.3393 13.4582C27.6738 13.1219 27.8615 12.667 27.8615 12.1928C27.8615 11.7187 27.6738 11.2637 27.3393 10.9275L25.9204 9.50053C25.7536 9.33365 25.5555 9.20126 25.3374 9.11094C25.1194 9.02061 24.8857 8.97412 24.6497 8.97412C24.4136 8.97412 24.1799 9.02061 23.9619 9.11094C23.7438 9.20126 23.5458 9.33365 23.379 9.50053L12.3422 20.53C12.2262 20.6472 12.1426 20.7926 12.0997 20.9518L11.2017 24.5416C11.1694 24.6577 11.1609 24.7791 11.1766 24.8986C11.1923 25.0181 11.2319 25.1332 11.2931 25.237C11.3543 25.3409 11.4358 25.4314 11.5327 25.5031C11.6296 25.5748 11.74 25.6262 11.8573 25.6544C11.9288 25.663 12.0012 25.663 12.0728 25.6544ZM24.6452 10.7659L26.073 12.1928L24.6452 13.6198L23.2263 12.1928L24.6452 10.7659ZM13.788 21.6249L21.9511 13.4582L23.379 14.8851L15.2069 23.0518L13.3121 23.5185L13.788 21.6249Z" fill="black"/>
<defs>
<filter id="filter0_ii_33866_16635" x="0" y="-1" width="35" height="40" filterUnits="userSpaceOnUse" color-interpolation-filters="sRGB">
<feFlood flood-opacity="0" result="BackgroundImageFix"/>
<feBlend mode="normal" in="SourceGraphic" in2="BackgroundImageFix" result="shape"/>
<feColorMatrix in="SourceAlpha" type="matrix" values="0 0 0 0 0 0 0 0 0 0 0 0 0 0 0 0 0 0 127 0" result="hardAlpha"/>
<feOffset dy="4"/>
<feGaussianBlur stdDeviation="2"/>
<feComposite in2="hardAlpha" operator="arithmetic" k2="-1" k3="1"/>
<feColorMatrix type="matrix" values="0 0 0 0 0 0 0 0 0 0 0 0 0 0 0 0 0 0 0.05 0"/>
<feBlend mode="normal" in2="shape" result="effect1_innerShadow_33866_16635"/>
<feColorMatrix in="SourceAlpha" type="matrix" values="0 0 0 0 0 0 0 0 0 0 0 0 0 0 0 0 0 0 127 0" result="hardAlpha"/>
<feOffset dy="-1"/>
<feGaussianBlur stdDeviation="2"/>
<feComposite in2="hardAlpha" operator="arithmetic" k2="-1" k3="1"/>
<feColorMatrix type="matrix" values="0 0 0 0 0 0 0 0 0 0 0 0 0 0 0 0 0 0 0.1 0"/>
<feBlend mode="normal" in2="effect1_innerShadow_33866_16635" result="effect2_innerShadow_33866_16635"/>
</filter>
</defs>
</svg>
