<svg width="38" height="37" viewBox="0 0 38 37" fill="none" xmlns="http://www.w3.org/2000/svg">
<path d="M0.199951 18.0505C0.199951 13.2772 2.1912 8.6994 5.73564 5.32416C9.28008 1.94892 14.0874 0.0527344 19.1 0.0527344C24.1126 0.0527344 28.9199 1.94892 32.4643 5.32416C36.0088 8.6994 38 13.2772 38 18.0505C38 22.8238 36.0088 27.4016 32.4643 30.7769C28.9199 34.1521 24.1126 36.0483 19.1 36.0483C14.0874 36.0483 9.28008 34.1521 5.73564 30.7769C2.1912 27.4016 0.199951 22.8238 0.199951 18.0505ZM17.9187 2.47569C16.3358 2.93463 14.7648 4.32046 13.4607 6.64892C13.031 7.42304 12.6615 8.22609 12.355 9.05162H17.9187V2.47569ZM9.86259 9.05162C10.2564 7.85661 10.7624 6.69782 11.3746 5.5893C11.7831 4.85377 12.2548 4.1517 12.785 3.49031C9.85787 4.64628 7.33945 6.57608 5.5274 9.05162H9.86259ZM8.48761 16.9257C8.55849 14.9526 8.81364 13.0606 9.22471 11.3013H4.15478C3.27385 13.0675 2.74818 14.9752 2.60498 16.9257H8.48761ZM11.651 11.3013C11.1863 13.1457 10.9188 15.03 10.8525 16.9257H17.9187V11.3013H11.651ZM20.2812 11.3013V16.9257H27.3451C27.2796 15.0301 27.0129 13.1457 26.5489 11.3013H20.2812ZM10.8548 19.1754C10.9204 21.0709 11.1871 22.9553 11.651 24.7997H17.9187V19.1754H10.8548ZM20.2812 19.1754V24.7997H26.5489C26.9907 23.0786 27.2719 21.1821 27.3475 19.1754H20.2812ZM12.355 27.0494C12.6811 27.9178 13.052 28.7232 13.4607 29.4521C14.7648 31.7806 16.3382 33.1642 17.9187 33.6253V27.0494H12.355ZM12.785 32.6107C12.2548 31.9493 11.783 31.2473 11.3746 30.5117C10.7624 29.4032 10.2564 28.2444 9.86259 27.0494H5.5274C7.33935 29.525 9.8578 31.4549 12.785 32.6107ZM9.22471 24.7997C8.79749 22.9506 8.55074 21.0678 8.48761 19.1754H2.60498C2.75145 21.1776 3.29247 23.0741 4.15478 24.7997H9.22471ZM25.4149 32.6107C28.3421 31.4549 30.8606 29.525 32.6726 27.0494H28.3374C27.9436 28.2444 27.4375 29.4032 26.8254 30.5117C26.417 31.2473 25.9452 31.9494 25.4149 32.6107ZM20.2812 27.0494V33.6253C21.8641 33.1664 23.4352 31.7806 24.7393 29.4521C25.148 28.7232 25.5189 27.9178 25.8449 27.0494H20.2812ZM28.9752 24.7997H34.0452C34.9075 23.0741 35.4485 21.1776 35.595 19.1754H29.7123C29.6492 21.0678 29.4025 22.9506 28.9752 24.7997ZM35.595 16.9257C35.4517 14.9752 34.9261 13.0675 34.0452 11.3013H28.9752C29.3863 13.0606 29.6415 14.9526 29.7123 16.9257H35.595ZM26.8254 5.5893C27.4089 6.63317 27.9168 7.79403 28.3374 9.05162H32.6726C30.8606 6.57599 28.3421 4.64617 25.4149 3.49031C25.93 4.12923 26.4025 4.83564 26.8254 5.5893ZM25.8449 9.05162C25.5385 8.22608 25.169 7.42303 24.7393 6.64892C23.4352 4.32046 21.8641 2.93688 20.2812 2.47569V9.05162H25.8449Z" fill="white"/>
</svg>
