<svg width="86" height="65" viewBox="0 0 86 65" fill="none" xmlns="http://www.w3.org/2000/svg">
<path d="M66.034 28.9312H65.8943C65.9275 24.5147 64.8695 20.7656 63.2127 16.8366C59.5529 17.3125 56.2259 18.0437 52.4064 19.7848C49.9245 15.1768 46.6374 12.2344 42.585 10C38.5327 12.2344 35.2456 15.1768 32.7636 19.7848C28.9508 18.0437 25.6171 17.3125 21.9574 16.8366C20.3005 20.7656 19.2425 24.5147 19.2758 28.9312H19.1427C15.6626 28.9312 13.0675 29.4767 10 30.3473C11.4306 35.8722 14.039 40.7008 19.003 45.0651C26.6285 51.7624 35.372 53.3119 41.0213 54.1012C28.8643 49.6441 21.984 40.2946 21.1988 30.62C21.1391 30.08 21.1146 29.5375 21.1256 28.995C21.0923 25.6232 21.7777 22.1468 23.1751 18.6357C26.2662 19.1002 29.2533 19.9896 32.025 21.2705C30.5811 24.4276 29.8491 27.7821 29.929 30.7477C27.8595 30.1035 25.5373 29.4999 22.9754 29.1749C22.9608 29.7253 22.9874 30.2759 23.0553 30.8232C26.6086 31.3107 29.6229 32.3553 32.0117 33.1446C31.832 31.6182 31.1267 27.7415 33.6486 22.0772C33.9014 21.4794 34.0611 21.1893 34.3805 20.5799C35.8245 17.8638 38.3597 14.3933 42.585 11.9152C46.8104 14.3933 49.3456 17.8638 50.7895 20.5799C47.6088 22.2513 44.8075 24.3986 42.605 26.8651L42.585 26.8419L42.5651 26.8651C40.6296 24.7143 38.3165 22.8437 35.7114 21.3227C35.4351 21.8173 35.1908 22.3249 34.9794 22.8433C37.4594 24.3282 39.6461 26.155 41.4538 28.2522C41.9662 28.8674 42.0593 28.9312 42.585 29.6857C47.0233 35.8258 47.0233 42.645 42.585 47.9262C38.5194 43.0919 38.18 36.9633 41.5669 31.2468C41.2075 30.7261 40.8165 30.2224 40.3958 29.7379C35.9509 36.5629 36.4433 44.0669 41.873 49.7544L42.585 50.4972L43.297 49.7544C49.126 43.649 49.2724 35.4544 43.7162 28.2522C45.7856 25.8379 48.4539 23.7254 51.5214 22.0772C52.0442 21.781 52.5863 21.5117 53.145 21.2705C55.9167 19.9896 58.9038 19.1002 61.995 18.6357C63.3923 22.1468 64.0777 25.6232 64.0444 28.995C60.744 29.2156 57.7962 29.9526 55.2411 30.7477C55.3143 28.1709 54.762 25.2982 53.6774 22.5183C53.1051 22.7678 52.5329 23.0696 52.0405 23.3424C53.9369 28.316 53.3247 31.7343 53.1583 33.1446C55.9531 32.2218 59.6061 30.945 63.9712 30.62C64.6832 30.5562 64.976 30.5504 65.8344 30.5446C68.2365 30.5214 70.5721 30.8174 72.9808 31.4325C70.5854 39.6155 63.898 46.3767 55.1612 49.7253C60.8305 45.216 64.7364 38.9946 65.6747 32.0303C65.0958 32.0361 64.4636 32.0477 63.7982 32.0883C62.4674 41.2347 55.6869 49.8704 44.1487 54.1012C49.798 53.3119 58.5482 51.7624 66.1671 45.0651C71.131 40.7008 73.7394 35.8722 75.17 30.3473C72.1025 29.4767 69.5074 28.9312 66.034 28.9312ZM30.0088 49.7253C21.272 46.3767 14.5847 39.6155 12.1892 31.4325C14.598 30.8174 16.9335 30.5214 19.3357 30.5446C19.888 38.1066 23.9403 44.8968 30.0088 49.7253Z" fill="white"/>
</svg>
