<svg width="16" height="13" viewBox="0 0 16 13" fill="none" xmlns="http://www.w3.org/2000/svg">
<path d="M15.1541 6.70702C15.1541 6.21759 14.8078 5.87045 14.3098 5.87045L5.00725 5.87045L3.38039 5.93045L5.55754 3.97959L7.25982 2.26188C7.41068 2.11188 7.50839 1.90102 7.50839 1.66702C7.50839 1.20759 7.16211 0.861306 6.68725 0.861306C6.57419 0.861846 6.46243 0.885462 6.35882 0.93071C6.2552 0.975958 6.16192 1.04188 6.08468 1.12445L1.11325 6.08902C1.02934 6.16865 0.962451 6.26448 0.916633 6.3707C0.870814 6.47692 0.847016 6.59134 0.846679 6.70702C0.846679 6.94102 0.937537 7.16645 1.11068 7.33273L6.08211 12.2896C6.15945 12.3723 6.25287 12.4382 6.35664 12.4835C6.46041 12.5288 6.57233 12.5523 6.68554 12.5527C7.16039 12.5527 7.50668 12.2142 7.50668 11.7547C7.5071 11.6429 7.48536 11.532 7.44269 11.4286C7.40003 11.3251 7.33729 11.2312 7.25811 11.1522L5.55582 9.4413L3.37011 7.48273L5.00554 7.55131L14.3107 7.5513C14.8078 7.5513 15.1541 7.20416 15.1541 6.70702Z" fill="black"/>
</svg>
