<svg width="17" height="18" viewBox="0 0 17 18" fill="none" xmlns="http://www.w3.org/2000/svg">
<path fill-rule="evenodd" clip-rule="evenodd" d="M8.585 4.09229C8.21681 4.09229 7.91833 4.39076 7.91833 4.75895V8.34229H4.62667C4.23547 8.34229 3.91833 8.65942 3.91833 9.05062C3.91833 9.44182 4.23547 9.75895 4.62667 9.75895H7.91833V13.3423C7.91833 13.7105 8.21681 14.009 8.585 14.009C8.95319 14.009 9.25167 13.7105 9.25167 13.3423V9.75895H12.5433C12.9345 9.75895 13.2517 9.44182 13.2517 9.05062C13.2517 8.65942 12.9345 8.34229 12.5433 8.34229H9.25167V4.75895C9.25167 4.39076 8.95319 4.09229 8.585 4.09229Z" fill="#110F24"/>
</svg>
