<svg width="27" height="27" viewBox="0 0 27 27" fill="none" xmlns="http://www.w3.org/2000/svg">
<path fill-rule="evenodd" clip-rule="evenodd" d="M4.5 24.75C4.5 19.7794 8.52944 15.75 13.5 15.75C18.4706 15.75 22.5 19.7794 22.5 24.75H20.25C20.25 21.0221 17.2279 18 13.5 18C9.77208 18 6.75 21.0221 6.75 24.75H4.5ZM13.5 14.625C9.77063 14.625 6.75 11.6044 6.75 7.875C6.75 4.14562 9.77063 1.125 13.5 1.125C17.2294 1.125 20.25 4.14562 20.25 7.875C20.25 11.6044 17.2294 14.625 13.5 14.625ZM13.5 12.375C15.9862 12.375 18 10.3612 18 7.875C18 5.38875 15.9862 3.375 13.5 3.375C11.0138 3.375 9 5.38875 9 7.875C9 10.3612 11.0138 12.375 13.5 12.375Z" fill="white"/>
</svg>
