<svg width="45" height="45" viewBox="0 0 45 45" fill="none" xmlns="http://www.w3.org/2000/svg">
<path fill-rule="evenodd" clip-rule="evenodd" d="M20.625 33.75H24.375V30H20.625V33.75ZM22.5 3.75C12.15 3.75 3.75 12.15 3.75 22.5C3.75 32.85 12.15 41.25 22.5 41.25C32.85 41.25 41.25 32.85 41.25 22.5C41.25 12.15 32.85 3.75 22.5 3.75ZM22.5 37.5C14.2313 37.5 7.5 30.7687 7.5 22.5C7.5 14.2313 14.2313 7.5 22.5 7.5C30.7687 7.5 37.5 14.2313 37.5 22.5C37.5 30.7687 30.7687 37.5 22.5 37.5ZM22.5 11.25C18.3562 11.25 15 14.6062 15 18.75H18.75C18.75 16.6875 20.4375 15 22.5 15C24.5625 15 26.25 16.6875 26.25 18.75C26.25 22.5 20.625 22.0312 20.625 28.125H24.375C24.375 23.9062 30 23.4375 30 18.75C30 14.6062 26.6437 11.25 22.5 11.25Z" fill="#312F2F"/>
</svg>
