<svg width="16" height="13" viewBox="0 0 16 13" fill="none" xmlns="http://www.w3.org/2000/svg">
<path d="M0.845893 6.70704C0.845893 7.19647 1.19218 7.54362 1.69018 7.54362L10.9927 7.54361L12.6196 7.48361L10.4425 9.43447L8.74018 11.1522C8.58932 11.3022 8.49161 11.513 8.49161 11.747C8.49161 12.2065 8.83789 12.5528 9.31275 12.5528C9.42581 12.5522 9.53757 12.5286 9.64118 12.4834C9.7448 12.4381 9.83808 12.3722 9.91532 12.2896L14.8867 7.32504C14.9707 7.24541 15.0375 7.14958 15.0834 7.04336C15.1292 6.93714 15.153 6.82273 15.1533 6.70704C15.1533 6.47304 15.0625 6.24761 14.8893 6.08133L9.91789 1.12447C9.84055 1.0418 9.74713 0.975815 9.64336 0.930564C9.53959 0.885313 9.42767 0.861752 9.31446 0.861329C8.83961 0.861329 8.49332 1.1999 8.49332 1.65933C8.4929 1.77121 8.51464 1.88206 8.55731 1.98549C8.59997 2.08891 8.66271 2.18286 8.74189 2.2619L10.4442 3.97276L12.6299 5.93133L10.9945 5.86276L1.68932 5.86276C1.19218 5.86276 0.845893 6.2099 0.845893 6.70704Z" fill="black"/>
</svg>
