<svg width="27" height="27" viewBox="0 0 27 27" fill="none" xmlns="http://www.w3.org/2000/svg">
<path fill-rule="evenodd" clip-rule="evenodd" d="M13.5 26.6939L6.3405 19.5344C2.38648 15.5803 2.3865 9.16957 6.34056 5.21553C10.2946 1.26149 16.7054 1.26149 20.6594 5.21553C24.6135 9.16957 24.6135 15.5803 20.6595 19.5344L13.5 26.6939ZM19.0687 17.9437C22.1439 14.8682 22.1437 9.88217 19.0684 6.80692C15.993 3.73167 11.007 3.73167 7.93163 6.80692C4.85627 9.88217 4.8561 14.8682 7.93125 17.9437L13.5 23.5124L19.0687 17.9437ZM13.5 14.6249C12.2574 14.6249 11.25 13.6176 11.25 12.3749C11.25 11.1323 12.2574 10.1249 13.5 10.1249C14.7426 10.1249 15.75 11.1323 15.75 12.3749C15.75 13.6176 14.7426 14.6249 13.5 14.6249Z" fill="white"/>
</svg>
