<svg width="27" height="30" viewBox="0 0 27 30" fill="none" xmlns="http://www.w3.org/2000/svg">
<path fill-rule="evenodd" clip-rule="evenodd" d="M9 12.5H5.625V8.75H3.375V12.5H0V15H3.375V18.75H5.625V15H9V12.5ZM20.25 13.75C22.1175 13.75 23.6138 12.075 23.6138 10C23.6138 7.925 22.1175 6.25 20.25 6.25C19.89 6.25 19.5413 6.3125 19.2262 6.425C19.8675 7.4375 20.2388 8.6625 20.2388 10C20.2388 11.3375 19.8562 12.55 19.2262 13.575C19.5413 13.6875 19.89 13.75 20.25 13.75ZM14.625 13.75C16.4925 13.75 17.9888 12.075 17.9888 10C17.9888 7.925 16.4925 6.25 14.625 6.25C12.7575 6.25 11.25 7.925 11.25 10C11.25 12.075 12.7575 13.75 14.625 13.75ZM22.0725 16.45C23.0063 17.3625 23.625 18.525 23.625 20V22.5H27V20C27 18.075 24.3338 16.8875 22.0725 16.45ZM14.625 16.25C12.375 16.25 7.875 17.5 7.875 20V22.5H21.375V20C21.375 17.5 16.875 16.25 14.625 16.25Z" fill="#110F24"/>
</svg>
