<svg width="95" height="95" viewBox="0 0 95 95" fill="none" xmlns="http://www.w3.org/2000/svg">
<path fill-rule="evenodd" clip-rule="evenodd" d="M47.4998 0.416748C21.5098 0.416748 0.416504 21.5101 0.416504 47.5001C0.416504 73.4901 21.5098 94.5834 47.4998 94.5834C73.4898 94.5834 94.5832 73.4901 94.5832 47.5001C94.5832 21.5101 73.4898 0.416748 47.4998 0.416748ZM47.4998 14.5417C55.3157 14.5417 61.6248 20.8509 61.6248 28.6667C61.6248 36.4826 55.3157 42.7917 47.4998 42.7917C39.684 42.7917 33.3748 36.4826 33.3748 28.6667C33.3748 20.8509 39.684 14.5417 47.4998 14.5417ZM47.4998 81.4001C35.729 81.4001 25.3236 75.3734 19.2498 66.2392C19.3911 56.8697 38.0832 51.7376 47.4998 51.7376C56.8694 51.7376 75.6086 56.8697 75.7498 66.2392C69.6761 75.3734 59.2707 81.4001 47.4998 81.4001Z" fill="black"/>
</svg>
